{
	"asset":{
		"generator":"Khronos glTF Blender I/O v4.4.56",
		"version":"2.0"
	},
	"scene":0,
	"scenes":[
		{
			"name":"Scene",
			"nodes":[
				1
			]
		}
	],
	"nodes":[
		{
			"mesh":0,
			"name":"Tab",
			"scale":[
				0.25,
				0.9500000476837158,
				0.44999998807907104
			]
		},
		{
			"children":[
				0
			],
			"mesh":1,
			"name":"can"
		}
	],
	"materials":[
		{
			"doubleSided":true,
			"name":"LabelMat",
			"pbrMetallicRoughness":{
				"baseColorTexture":{
					"index":0
				},
				"metallicFactor":0,
				"roughnessFactor":0.5
			}
		}
	],
	"meshes":[
		{
			"name":"CanTab",
			"primitives":[
				{
					"attributes":{
						"POSITION":0,
						"NORMAL":1,
						"TEXCOORD_0":2
					},
					"indices":3
				}
			]
		},
		{
			"name":"cylinder",
			"primitives":[
				{
					"attributes":{
						"POSITION":4,
						"NORMAL":5,
						"TEXCOORD_0":6
					},
					"indices":7,
					"material":0
				}
			]
		}
	],
	"textures":[
		{
			"sampler":0,
			"source":0
		}
	],
	"images":[
		{
			"mimeType":"image/jpeg",
			"name":"z6698168456533_6293b8de682d0995cdc1645ac8180588",
			"uri":"z6698168456533_6293b8de682d0995cdc1645ac8180588.jpg"
		}
	],
	"accessors":[
		{
			"bufferView":0,
			"componentType":5126,
			"count":650,
			"max":[
				0.10328245162963867,
				0.3453875780105591,
				0.04694851487874985
			],
			"min":[
				-0.05091589689254761,
				0.33007410168647766,
				-0.07133328169584274
			],
			"type":"VEC3"
		},
		{
			"bufferView":1,
			"componentType":5126,
			"count":650,
			"type":"VEC3"
		},
		{
			"bufferView":2,
			"componentType":5126,
			"count":650,
			"type":"VEC2"
		},
		{
			"bufferView":3,
			"componentType":5123,
			"count":3504,
			"type":"SCALAR"
		},
		{
			"bufferView":4,
			"componentType":5126,
			"count":24,
			"max":[
				0.25,
				0.9500000476837158,
				0.44999998807907104
			],
			"min":[
				-0.25,
				-0.9500000476837158,
				-0.44999998807907104
			],
			"type":"VEC3"
		},
		{
			"bufferView":5,
			"componentType":5126,
			"count":24,
			"type":"VEC3"
		},
		{
			"bufferView":6,
			"componentType":5126,
			"count":24,
			"type":"VEC2"
		},
		{
			"bufferView":7,
			"componentType":5123,
			"count":36,
			"type":"SCALAR"
		}
	],
	"bufferViews":[
		{
			"buffer":0,
			"byteLength":7800,
			"byteOffset":0,
			"target":34962
		},
		{
			"buffer":0,
			"byteLength":7800,
			"byteOffset":7800,
			"target":34962
		},
		{
			"buffer":0,
			"byteLength":5200,
			"byteOffset":15600,
			"target":34962
		},
		{
			"buffer":0,
			"byteLength":7008,
			"byteOffset":20800,
			"target":34963
		},
		{
			"buffer":0,
			"byteLength":288,
			"byteOffset":27808,
			"target":34962
		},
		{
			"buffer":0,
			"byteLength":288,
			"byteOffset":28096,
			"target":34962
		},
		{
			"buffer":0,
			"byteLength":192,
			"byteOffset":28384,
			"target":34962
		},
		{
			"buffer":0,
			"byteLength":72,
			"byteOffset":28576,
			"target":34963
		}
	],
	"samplers":[
		{
			"magFilter":9729,
			"minFilter":9987
		}
	],
	"buffers":[
		{
			"byteLength":28648,
			"uri":"Soda-can.bin"
		}
	]
}
