<?xml version="1.0" standalone="no"?>
<!DOCTYPE svg PUBLIC "-//W3C//DTD SVG 20010904//EN"
 "http://www.w3.org/TR/2001/REC-SVG-20010904/DTD/svg10.dtd">
<svg version="1.0" xmlns="http://www.w3.org/2000/svg"
 width="300.000000pt" height="300.000000pt" viewBox="0 0 300.000000 300.000000"
 preserveAspectRatio="xMidYMid meet">
<metadata>
Created by potrace 1.10, written by Peter Selinger 2001-2011
</metadata>
<g transform="translate(0.000000,300.000000) scale(0.100000,-0.100000)"
fill="#000000" stroke="none">
<path d="M1272 1648 c3 -101 2 -207 -2 -235 -7 -59 -4 -62 60 -59 21 0 35 6
34 14 -1 6 -2 113 -2 237 l-2 225 -46 0 -47 0 5 -182z m45 -165 c-2 -21 -4 -4
-4 37 0 41 2 58 4 38 2 -21 2 -55 0 -75z"/>
<path d="M2510 1590 l0 -240 50 0 50 0 0 121 c0 120 0 121 29 150 25 24 38 29
80 29 85 0 104 -36 100 -190 l-3 -105 48 0 c26 -1 49 2 50 5 9 18 -15 233 -29
260 -36 69 -147 93 -229 49 -44 -24 -54 -32 -80 -74 -18 -27 -20 -28 -26 -10
-4 11 -6 23 -3 27 2 4 4 39 4 78 0 85 18 105 21 23 0 -32 0 -66 0 -76 -2 -17
-1 -17 15 -1 13 12 18 39 21 105 l4 89 -51 0 -51 0 0 -240z m57 -80 c1 -27 -3
-50 -8 -50 -5 0 -9 23 -9 50 0 28 3 50 8 50 4 0 8 -22 9 -50z"/>
<path d="M420 1800 c-96 -3 -182 -9 -191 -13 -39 -19 -49 -65 -51 -254 l-3
-183 48 2 47 1 0 92 c0 111 -9 105 158 105 l114 0 -3 -97 -3 -98 48 0 48 0 -2
220 c0 160 -4 221 -13 227 -7 4 -14 7 -17 6 -3 -1 -84 -5 -180 -8z m160 -55
c0 5 5 4 11 -2 7 -7 9 -19 6 -27 -6 -15 -8 -15 -26 1 -11 9 -18 20 -15 25 3 4
-2 8 -11 8 -9 0 -13 5 -10 11 5 7 14 4 26 -7 10 -9 19 -13 19 -9z m-327 -11
c3 -4 2 -16 -4 -26 -13 -24 -35 -9 -26 16 7 17 19 21 30 10z m287 -81 l0 -68
-135 0 -136 0 3 60 c3 58 4 60 33 66 17 4 76 7 133 8 l102 1 0 -67z m52 -134
c2 -50 0 -93 -4 -96 -5 -2 -8 28 -8 66 0 39 -4 71 -9 71 -4 0 -6 11 -3 25 10
52 21 22 24 -66z m-346 27 c-10 -39 -23 -31 -18 10 3 24 8 32 14 26 6 -6 8
-22 4 -36z"/>
<path d="M750 1523 l0 -169 47 1 47 0 -3 113 -3 112 35 35 c31 31 41 35 85 35
44 0 53 -4 77 -32 26 -30 26 -35 24 -147 l-3 -116 49 0 49 0 -2 65 c-6 166
-21 217 -75 250 -49 30 -141 27 -189 -5 l-37 -25 -3 23 c-3 19 -10 22 -50 25
l-48 3 0 -168z m74 90 c-4 -16 -11 -31 -16 -34 -5 -3 -7 -17 -4 -30 3 -13 2
-40 -4 -59 -7 -28 -9 -19 -7 50 1 77 8 99 30 100 4 0 4 -12 1 -27z"/>
<path d="M1533 1676 c-27 -12 -33 -21 -33 -46 0 -35 -1 -35 36 -15 41 21 167
20 205 -2 27 -16 44 -41 35 -50 -3 -3 -24 2 -48 11 -96 37 -207 0 -245 -80
-15 -31 -15 -37 0 -69 19 -41 80 -75 132 -75 49 0 122 19 136 36 17 20 27 17
31 -8 3 -20 10 -23 48 -25 l45 -2 -3 117 c-4 133 -19 168 -82 199 -47 24 -212
29 -257 9z m299 -174 c0 -91 0 -92 -18 -92 -12 0 -15 6 -10 23 16 56 18 78 6
92 -7 9 -9 26 -5 46 11 51 27 11 27 -69z m-66 27 c8 -6 14 -26 14 -45 0 -48
-41 -74 -114 -74 -74 0 -106 20 -106 66 0 28 6 38 33 55 27 17 43 19 96 15 35
-3 70 -11 77 -17z"/>
<path d="M1995 1520 l0 -170 46 0 45 0 -4 113 -4 114 37 36 c33 32 44 37 84
37 86 -1 103 -33 100 -183 l-3 -112 49 0 49 0 -3 110 c-3 119 -14 156 -56 195
-24 22 -35 25 -103 25 -64 0 -82 -4 -109 -23 -18 -13 -34 -20 -35 -15 0 4 -1
15 -2 23 -1 10 -15 16 -46 18 l-45 3 0 -171z"/>
<path d="M903 1154 c-2 -6 -2 -55 -1 -110 2 -80 6 -99 18 -99 11 0 16 13 18
48 l3 47 70 0 c57 0 69 3 69 16 0 14 -11 16 -70 12 l-71 -4 3 36 3 35 78 -2
c70 -3 78 -1 75 15 -3 15 -16 17 -97 17 -57 0 -95 -4 -98 -11z"/>
<path d="M1575 1110 c-4 -6 -23 -9 -43 -8 l-37 3 -3 -77 c-3 -73 -1 -78 18
-78 18 0 20 6 20 55 0 61 13 75 70 75 25 0 31 4 28 18 -4 19 -43 29 -53 12z"/>
<path d="M1970 1113 c-8 -3 -23 -12 -32 -21 -16 -14 -20 -13 -36 1 -20 18 -78
22 -102 7 -9 -6 -17 -5 -21 2 -4 6 -14 8 -23 5 -13 -5 -16 -22 -16 -82 0 -68
2 -75 20 -75 18 0 20 7 20 53 0 61 19 87 63 87 34 0 47 -25 47 -88 0 -53 5
-63 26 -55 10 3 14 22 14 58 0 56 19 85 57 85 31 0 42 -20 45 -85 2 -45 7 -60
18 -60 17 0 25 59 15 113 -5 26 -14 37 -40 48 -19 8 -36 14 -37 13 -2 0 -10
-3 -18 -6z"/>
<path d="M1210 1095 c-19 -22 -7 -28 35 -16 26 7 45 7 63 -1 25 -11 24 -12
-29 -17 -63 -7 -89 -23 -89 -56 0 -41 29 -55 114 -53 l78 2 -7 54 c-9 72 -13
82 -42 93 -38 14 -109 11 -123 -6z m120 -70 c20 -25 -5 -45 -56 -45 -40 0 -44
2 -44 24 0 13 6 27 13 29 26 11 75 6 87 -8z"/>
</g>
</svg>
